<?xml version="1.0" encoding="utf-8"?>
<!-- Generator: Adobe Illustrator 16.0.0, SVG Export Plug-In . SVG Version: 6.00 Build 0)  -->
<!DOCTYPE svg PUBLIC "-//W3C//DTD SVG 1.1//EN" "http://www.w3.org/Graphics/SVG/1.1/DTD/svg11.dtd">
<svg version="1.1" id="Layer_1" xmlns="http://www.w3.org/2000/svg" xmlns:xlink="http://www.w3.org/1999/xlink" x="0px" y="0px"
	 width="280.667px" height="426px" viewBox="0 0 280.667 426" enable-background="new 0 0 280.667 426" xml:space="preserve">
<title>Slice 1</title>
<desc>Created with Sketch.</desc>
<g>
	<path fill-rule="evenodd" clip-rule="evenodd" fill="#FFFFFF" d="M65.662,294.559c0.31-0.055,0.424-0.061,0.527-0.096
		c1.815-0.633,3.663-1.188,5.438-1.918c5.726-2.361,10.929-5.633,15.881-9.318c6.429-4.785,12.303-10.191,17.878-15.938
		c5.063-5.219,9.845-10.682,14.418-16.326c8.547-10.553,16.347-21.637,23.618-33.102c2.69-4.24,5.584-8.338,9-12.038
		c1.328-1.438,2.721-2.816,4.439-3.796c0.473-0.27,1.002-0.492,1.533-0.601c0.964-0.197,1.595,0.183,1.882,1.121
		c0.16,0.521,0.222,1.085,0.239,1.633c0.052,1.589-0.266,3.135-0.665,4.66c-1.419,5.409-3.55,10.552-6.001,15.56
		c-2.44,4.988-5.452,9.643-8.565,14.23c-6.641,9.791-13.93,19.08-21.777,27.932c-4.628,5.221-9.461,10.24-14.633,14.93
		c-0.124,0.113-0.226,0.25-0.353,0.391c0.104,0.033,0.16,0.074,0.204,0.063c0.283-0.07,0.566-0.139,0.841-0.232
		c2.805-0.953,5.405-2.326,7.906-3.896c5.61-3.525,10.616-7.807,15.373-12.387c7.289-7.02,13.867-14.662,19.863-22.807
		c5.195-7.061,9.938-14.402,13.727-22.326c3.439-7.193,5.78-14.69,6.303-22.693c0.203-3.104,0.067-6.183-0.627-9.22
		c-0.491-2.149-1.25-4.193-2.64-5.947c-2.034-2.571-4.807-3.452-7.96-2.556c-1.217,0.346-2.346,0.879-3.418,1.542
		c-2.558,1.582-4.691,3.647-6.661,5.891c-2.957,3.366-5.443,7.067-7.736,10.905c-3.215,5.382-6.371,10.801-9.645,16.148
		c-7.3,11.924-15.099,23.512-23.67,34.566c-8.437,10.879-17.584,21.107-27.833,30.326c-0.243,0.217-0.504,0.416-0.756,0.623
		c0.037-0.359,0.182-0.6,0.342-0.83c1.063-1.535,2.137-3.061,3.194-4.6c6.214-9.037,12.244-18.199,18.119-27.461
		c8.404-13.252,16.56-26.652,24.034-40.459c3.241-5.987,6.081-12.149,8.006-18.699c1.271-4.326,2.147-8.717,2.068-13.256
		c-0.045-2.589-0.392-5.123-1.505-7.49c-1.328-2.82-3.435-4.674-6.613-5.114c-1.227-0.17-2.443-0.059-3.651,0.199
		c-2.493,0.532-4.723,1.659-6.829,3.049c-3.536,2.333-6.535,5.263-9.285,8.46c-4.648,5.401-8.448,11.375-11.758,17.663
		c-5.935,11.276-11.806,22.585-17.737,33.863c-5.103,9.705-10.249,19.385-15.38,29.074c-6.333,11.955-12.69,23.898-18.999,35.867
		c-5.249,9.957-10.442,19.943-15.659,29.914c-0.157,0.301-0.301,0.607-0.484,0.98c0.258,0,0.399,0.012,0.537-0.004
		c3.533-0.408,7.073-0.762,10.596-1.246c4.879-0.67,9.758-1.363,14.614-2.182c8.453-1.426,16.832-3.213,25.137-5.35
		c13.038-3.354,25.776-7.582,38.102-13.018c12.723-5.609,24.765-12.396,35.841-20.836c8.388-6.393,16.002-13.59,22.642-21.797
		c8.167-10.098,14.464-21.234,18.593-33.568c2.631-7.861,4.269-15.929,4.924-24.19c0.348-4.372,0.227-8.741-0.259-13.103
		c-0.753-6.772-2.433-13.301-5.17-19.538c-5.371-12.23-13.553-22.072-25.083-28.946c-9.619-5.734-20.031-8.253-31.243-7.263
		c-5.153,0.455-10.109,1.695-14.896,3.63c-8.887,3.594-16.399,9.175-23.04,16.005c-0.183,0.188-0.376,0.366-0.564,0.548
		c-0.053-0.042-0.105-0.084-0.158-0.126c3.445-13.755,8.13-27.075,14.3-40.088c-1.294,0.579-2.309,1.191-3.283,1.872
		c-3.04,2.123-5.592,4.757-7.93,7.609c-3.917,4.78-7.145,10.014-10.093,15.427c-3.702,6.793-6.895,13.826-9.796,20.993
		c-5.092,12.58-9.328,25.446-12.784,38.567c-2.869,10.889-5.365,21.854-6.364,33.104c-0.229,2.588-0.339,5.182-0.083,7.775
		c0.016,0.158,0.077,0.311,0.165,0.652c0.155-0.455,0.254-0.725,0.339-0.996c2.808-8.902,6-17.662,9.788-26.201
		c4.268-9.617,9.197-18.87,15.208-27.524c4.727-6.804,10.021-13.117,16.242-18.616c5.302-4.687,11.08-8.642,17.651-11.355
		c8.023-3.313,16.323-4.542,24.925-3.103c11.075,1.853,20.104,7.266,27.012,16.079c7.676,9.791,10.607,21.065,9.899,33.365
		c-0.302,5.255-1.309,10.408-2.645,15.494c-3.228,12.284-8.792,23.436-16.332,33.627c-6.392,8.637-13.914,16.172-22.311,22.854
		c-8.638,6.875-17.967,12.658-27.828,17.6c-13.585,6.807-27.816,11.854-42.514,15.637c-8.023,2.063-16.134,3.701-24.307,5.033
		c-0.728,0.119-1.462,0.201-2.338,0.318c0.211-0.412,0.334-0.67,0.472-0.918c6.055-10.914,12.127-21.816,18.162-32.74
		c6.557-11.869,13.124-23.732,19.602-35.645c5.781-10.631,11.453-21.32,17.162-31.991c2.284-4.268,4.465-8.591,6.82-12.818
		c2.401-4.311,5.125-8.421,8.342-12.183c1.197-1.399,2.446-2.753,3.966-3.808c0.567-0.394,1.2-0.74,1.854-0.95
		c0.981-0.315,1.673,0.085,1.932,1.087c0.158,0.61,0.206,1.267,0.198,1.9c-0.025,1.941-0.508,3.809-1.029,5.663
		c-1.338,4.755-3.215,9.309-5.209,13.816c-4.297,9.719-9.306,19.074-14.557,28.303c-6.26,11.002-12.86,21.803-19.406,32.635
		c-5.898,9.76-11.788,19.523-17.319,29.498C67.336,291.482,66.547,292.941,65.662,294.559z M179.341,49.386
		c0.165-0.222,0.344-0.449,0.51-0.684c6.652-9.441,17.776-14.342,29.154-12.904c5.794,0.732,10.952,2.93,15.4,6.738
		c2.044,1.75,3.923,3.662,5.623,5.748c5.562,6.824,8.588,14.631,9.018,23.424c0.291,5.985-0.615,11.814-2.569,17.466
		c-4.383,12.673-12.133,22.822-23.077,30.547c-0.246,0.173-0.487,0.352-0.853,0.618c0.283,0.018,0.373,0.04,0.455,0.026
		c0.49-0.079,0.979-0.157,1.465-0.253c5.943-1.177,11.284-3.698,16.128-7.291c7.14-5.296,12.468-12.065,16.061-20.174
		c4.534-10.234,5.589-20.818,2.881-31.715c-1.905-7.664-5.601-14.424-10.563-20.522c-2.141-2.63-4.481-5.071-6.995-7.344
		c-0.345-0.312-0.566-0.585-0.436-1.116c1.441-5.877,3.47-11.499,7.052-16.458c0.107-0.15,0.174-0.332,0.288-0.554
		c-0.197-0.03-0.306-0.061-0.415-0.062c-1.751-0.008-3.502-0.048-5.251-0.011c-6.772,0.145-13.512,0.692-20.216,1.681
		c-6.411,0.945-12.75,2.227-18.966,4.075c-5.099,1.516-10.078,3.326-14.623,6.163c-0.046,0.028-0.11,0.025-0.184,0.041
		c-0.641-0.379-1.287-0.775-1.945-1.149c-5.163-2.935-10.717-4.854-16.452-6.291c-8.721-2.185-17.608-3.169-26.564-3.64
		c-5.101-0.268-10.206-0.263-15.312-0.199c-0.304,0.004-0.607,0.039-1.062,0.07c2.143,2.654,3.813,5.412,5.164,8.365
		c1.347,2.943,2.423,5.986,3.393,9.02c-0.077,0.114-0.103,0.17-0.144,0.208c-0.169,0.161-0.342,0.317-0.515,0.475
		c-4.501,4.099-8.629,8.528-12.056,13.582c-6.322,9.324-8.965,19.503-7.229,30.729c1.253,8.103,4.189,15.506,9.051,22.123
		c4.943,6.725,11.238,11.893,18.52,15.881c11.447,6.268,23.807,9.208,36.752,9.965c4.813,0.281,9.619,0.155,14.42-0.303
		c4.48-0.427,8.899-1.187,13.256-2.31c0.224-0.058,0.438-0.152,0.655-0.229c-0.322-0.099-0.613-0.103-0.904-0.098
		c-4.798,0.082-9.559-0.353-14.289-1.107c-9.726-1.549-19.098-4.309-28.094-8.321c-6.717-2.995-13.049-6.632-18.751-11.306
		c-4.271-3.5-8.022-7.473-10.891-12.226c-4.078-6.759-5.688-14.045-4.243-21.829c2.233-12.021,8.755-21.015,19.633-26.696
		c5.487-2.866,11.349-4.199,17.574-3.648c6.438,0.57,11.961,3.147,16.585,7.633C177.013,46.716,178.114,48.046,179.341,49.386z
		 M63.615,321.934c3.614,2.018,6.197,4.902,8.634,7.938c1.04,1.297,2.044,2.623,3.027,3.965c3.015,4.119,5.963,8.285,9.026,12.367
		c2.982,3.977,6.257,7.697,10.074,10.908c2.671,2.248,5.54,4.184,8.799,5.482c3.922,1.563,7.912,1.928,11.973,0.578
		c2.702-0.898,5.038-2.416,7.145-4.307c3.05-2.734,5.442-5.994,7.532-9.49c2.704-4.523,4.779-9.336,6.601-14.27
		c1.193-3.23,2.496-6.412,4.252-9.391c2.498-4.23,5.845-7.516,10.393-9.539c3.168-1.41,6.321-2.869,9.407-4.449
		c18.685-9.57,34.996-22.162,48.489-38.305c10.886-13.025,19.19-27.523,24.716-43.59c4.485-13.039,6.862-26.451,7.018-40.242
		c0.095-8.426-0.674-16.775-2.329-25.042c-2.943-14.697-8.479-28.336-16.627-40.915c-0.138-0.213-0.297-0.415-0.473-0.658
		c-0.031,0.123-0.065,0.182-0.056,0.232c0.05,0.227,0.107,0.453,0.171,0.677c3.086,10.998,5.333,22.157,6.521,33.526
		c0.595,5.691,0.936,11.397,0.954,17.116c0.026,7.798-0.507,15.561-1.674,23.278c-1.154,7.627-2.896,15.113-5.308,22.441
		c-5.298,16.098-13.435,30.607-24.429,43.506c-8.228,9.654-17.682,17.934-28.192,25.016c-8.271,5.574-17.017,10.277-26.175,14.219
		c-2.395,1.031-4.647,2.309-6.74,3.861c-4.523,3.361-7.569,7.805-9.459,13.057c-0.908,2.523-1.66,5.1-2.488,7.65
		c-1.426,4.389-3.049,8.695-5.364,12.707c-1.274,2.209-2.743,4.271-4.691,5.951c-1.415,1.221-2.999,2.115-4.851,2.484
		c-2.17,0.43-4.232,0.031-6.231-0.822c-2.502-1.068-4.688-2.631-6.621-4.508c-2.05-1.988-3.988-4.094-5.954-6.166
		c-3.537-3.732-7.203-7.32-11.34-10.395c-2.042-1.518-4.178-2.879-6.512-3.91c-2.02-0.893-4.109-1.502-6.339-1.48
		C65.566,321.422,64.645,321.521,63.615,321.934z M123.279,382.281c-0.462,0-0.775,0-1.087,0c-4.609,0-9.218-0.039-13.827,0.016
		c-2.242,0.027-4.491,0.146-6.721,0.373c-2.798,0.283-5.512,0.963-8.042,2.25c-2.921,1.488-5.044,3.723-6.322,6.748
		c-1.012,2.396-1.432,4.918-1.584,7.494c-0.201,3.418,0.036,6.818,0.404,10.215c0.064,0.592,0.165,1.18,0.25,1.768
		c0.236-0.238,0.325-0.48,0.414-0.723c0.583-1.588,1.133-3.188,1.76-4.756c0.619-1.551,1.439-2.996,2.582-4.234
		c1.639-1.779,3.718-2.779,6.012-3.393c3.126-0.834,6.33-1.02,9.542-1.021c18.028-0.016,36.056-0.014,54.083,0
		c2.891,0,5.762,0.213,8.608,0.793c4.743,0.965,7.971,3.664,9.651,8.201c0.578,1.559,1.134,3.123,1.706,4.684
		c0.06,0.16,0.162,0.303,0.245,0.455c0.066-0.014,0.132-0.027,0.198-0.039c0.202-2.789,0.461-5.576,0.593-8.369
		c0.112-2.363-0.063-4.721-0.475-7.059c-1.083-6.158-4.559-10.197-10.585-12.002c-3.155-0.943-6.395-1.35-9.669-1.371
		c-7.117-0.051-14.235-0.025-21.354-0.029c-0.348-0.002-0.695,0-1.115,0c-1.248-3.57-2.477-7.119-3.729-10.656
		c-1.247-3.525-2.442-7.068-3.766-10.705c-3.533,3.756-7.392,6.752-12.232,8.391C120.276,373.654,121.847,377.873,123.279,382.281z
		 M176.355,61.954c0.059-0.025,0.116-0.05,0.175-0.075c-0.045-0.155-0.064-0.324-0.141-0.462c-0.338-0.612-0.674-1.227-1.042-1.82
		c-2.358-3.811-5.645-6.553-9.712-8.383c-3.136-1.411-6.425-1.967-9.863-1.948c-3.815,0.021-7.409,0.823-10.745,2.655
		c-6.021,3.308-9.91,8.194-10.971,15.114c-0.481,3.14-0.233,6.239,0.844,9.218c2.062,5.707,6.028,9.682,11.498,12.185
		c3.063,1.403,6.3,1.997,9.68,1.995c3.747-0.001,7.283-0.79,10.619-2.473c3.345-1.688,6.08-4.088,8.226-7.158
		c0.103-0.147,0.16-0.325,0.238-0.49c-0.214,0.016-0.325,0.101-0.426,0.195c-0.598,0.554-1.151,1.166-1.795,1.658
		c-5.735,4.385-13.715,4.731-19.772,0.802c-4.12-2.673-6.695-6.434-7.106-11.38c-0.501-6.021,2.093-10.67,7.038-13.939
		c4.225-2.794,8.918-3.472,13.831-2.195c3.7,0.962,6.778,2.914,9.043,6.052C176.088,61.662,176.227,61.804,176.355,61.954z
		 M185.292,62.092c0.233-0.104,0.3-0.113,0.333-0.151c0.114-0.131,0.222-0.27,0.323-0.411c2.58-3.572,6.134-5.638,10.401-6.369
		c5.729-0.98,10.807,0.492,15.067,4.533c5.361,5.086,6.062,13.355,1.643,19.293c-4.279,5.75-12.031,8.161-19.129,5.798
		c-2.47-0.822-4.678-2.09-6.471-4.021c-0.163-0.176-0.3-0.499-0.73-0.432c0.11,0.185,0.175,0.312,0.257,0.427
		c4.107,5.764,9.741,8.938,16.735,9.601c3.75,0.355,7.449-0.109,10.982-1.558c2.674-1.097,5.085-2.594,7.166-4.602
		c2.993-2.892,5.031-6.325,5.839-10.443c0.494-2.517,0.497-5.045,0.062-7.559c-0.5-2.891-1.685-5.499-3.416-7.873
		c-2.89-3.959-6.728-6.574-11.353-8.062c-2.376-0.765-4.83-0.996-7.333-0.998c-3.662-0.003-7.114,0.776-10.369,2.423
		c-4.27,2.16-7.52,5.362-9.696,9.635C185.501,61.522,185.434,61.738,185.292,62.092z M140.266,337.85
		c0,0.281-0.017,0.479,0.002,0.674c0.231,2.426,1.082,4.646,2.318,6.725c2.327,3.908,5.44,6.98,9.644,8.836
		c2.236,0.988,4.571,1.363,7.005,0.9c2.087-0.395,3.882-1.391,5.521-2.701c1.697-1.361,3.111-2.986,4.377-4.744
		c2.364-3.289,4.151-6.887,5.661-10.629c2.554-6.326,4.277-12.883,5.396-19.604c0.612-3.688,0.983-7.398,1.027-11.139
		c0.007-0.514-0.037-1.029-0.058-1.543c-0.355,0.277-0.559,0.586-0.728,0.914c-2.001,3.887-4.018,7.766-5.989,11.67
		c-2.077,4.111-4.092,8.256-6.595,12.137c-1.776,2.756-3.753,5.346-6.282,7.471c-3.793,3.188-8.133,4.42-13.036,3.688
		c-2.559-0.383-4.979-1.201-7.328-2.26C140.917,338.117,140.625,338.002,140.266,337.85z M189.453,397.01c0.399,0,0.741,0,1.084,0
		c4.141,0,8.281-0.01,12.422,0.004c2.742,0.008,5.472,0.189,8.181,0.672c5.009,0.895,8.513,3.588,10.258,8.436
		c0.04,0.109,0.094,0.215,0.133,0.324c0.491,1.371,0.978,2.742,1.473,4.113c0.071,0.199,0.174,0.389,0.262,0.582
		c0.247-0.938,0.367-1.85,0.459-2.766c0.383-3.807,0.598-7.615,0.092-11.43c-0.308-2.328-0.893-4.574-2.039-6.645
		c-1.806-3.266-4.645-5.238-8.102-6.41c-3.318-1.125-6.763-1.543-10.243-1.58c-5.742-0.059-11.487-0.025-17.231-0.027
		c-0.183,0-0.364,0.045-0.636,0.08C188.736,386.779,189.319,391.791,189.453,397.01z M179.383,377.477
		c-2.497-7.979-4.939-15.787-7.43-23.744c-2.903,4.732-7.166,7.244-12.249,8.404c-0.044,0.119-0.066,0.148-0.061,0.17
		c1.194,4.021,2.397,8.041,3.577,12.068c0.131,0.447,0.395,0.488,0.775,0.502c1.689,0.064,3.383,0.102,5.067,0.236
		c3.327,0.268,6.584,0.885,9.691,2.156C178.91,377.334,179.072,377.375,179.383,377.477z M181.638,102.53
		c0.274-0.338,0.501-0.597,0.704-0.872c0.994-1.349,1.719-2.84,2.245-4.423c1.419-4.27,1.618-8.621,0.793-13.026
		c-0.466-2.484-1.301-4.834-2.709-6.954c-0.299-0.451-0.652-0.867-1.011-1.338c-0.772,0.758-1.275,1.571-1.733,2.41
		c-1.436,2.625-2.163,5.463-2.415,8.422c-0.37,4.337,0.123,8.551,1.992,12.537C180.037,100.422,180.681,101.49,181.638,102.53z
		 M162.792,65.388c-2.613-0.167-5.291,1.949-5.294,5.203c-0.002,3.005,2.245,5.275,5.231,5.298c3.234,0.024,5.287-2.615,5.3-5.235
		C168.043,67.705,165.633,65.255,162.792,65.388z M198.629,65.388c-2.533-0.152-5.262,1.928-5.241,5.256
		c0.019,2.996,2.281,5.242,5.283,5.244c3.188,0.002,5.255-2.616,5.247-5.288C203.912,67.756,201.574,65.238,198.629,65.388z"/>
	<path fill-rule="evenodd" clip-rule="evenodd" fill="#FF0000" d="M65.662,294.559c0.885-1.617,1.674-3.076,2.478-4.525
		c5.531-9.975,11.421-19.738,17.319-29.498c6.546-10.832,13.146-21.633,19.406-32.635c5.251-9.229,10.259-18.584,14.557-28.303
		c1.994-4.507,3.871-9.062,5.209-13.816c0.521-1.854,1.004-3.721,1.029-5.663c0.008-0.634-0.04-1.29-0.198-1.9
		c-0.259-1.002-0.951-1.402-1.932-1.087c-0.654,0.209-1.287,0.556-1.854,0.95c-1.52,1.055-2.769,2.409-3.966,3.808
		c-3.216,3.762-5.94,7.872-8.342,12.183c-2.355,4.227-4.537,8.55-6.82,12.818c-5.708,10.67-11.38,21.36-17.162,31.991
		c-6.479,11.912-13.045,23.775-19.602,35.645c-6.035,10.924-12.107,21.826-18.162,32.74c-0.138,0.248-0.261,0.506-0.472,0.918
		c0.875-0.117,1.61-0.199,2.338-0.318c8.173-1.332,16.284-2.971,24.307-5.033c14.698-3.783,28.929-8.83,42.514-15.637
		c9.861-4.941,19.19-10.725,27.828-17.6c8.396-6.682,15.919-14.217,22.311-22.854c7.54-10.191,13.104-21.344,16.332-33.627
		c1.336-5.086,2.343-10.239,2.645-15.494c0.708-12.299-2.224-23.574-9.899-33.365c-6.908-8.813-15.937-14.226-27.012-16.079
		c-8.602-1.438-16.901-0.209-24.925,3.103c-6.572,2.713-12.35,6.668-17.651,11.355c-6.222,5.5-11.516,11.813-16.242,18.616
		c-6.011,8.654-10.94,17.907-15.208,27.524c-3.788,8.539-6.979,17.298-9.788,26.201c-0.085,0.271-0.184,0.541-0.339,0.996
		c-0.088-0.342-0.149-0.494-0.165-0.652c-0.256-2.594-0.147-5.188,0.083-7.775c0.999-11.25,3.495-22.215,6.364-33.104
		c3.457-13.121,7.692-25.987,12.784-38.567c2.901-7.167,6.094-14.2,9.796-20.993c2.948-5.413,6.175-10.647,10.093-15.427
		c2.338-2.852,4.89-5.486,7.93-7.609c0.974-0.681,1.989-1.292,3.283-1.872c-6.17,13.013-10.855,26.333-14.3,40.088
		c0.053,0.042,0.105,0.084,0.158,0.126c0.188-0.183,0.381-0.36,0.564-0.548c6.641-6.831,14.153-12.412,23.04-16.005
		c4.787-1.936,9.743-3.176,14.896-3.63c11.211-0.99,21.624,1.529,31.243,7.263c11.53,6.874,19.712,16.716,25.083,28.946
		c2.737,6.236,4.417,12.765,5.17,19.538c0.485,4.362,0.606,8.731,0.259,13.103c-0.655,8.261-2.293,16.329-4.924,24.19
		c-4.129,12.334-10.426,23.471-18.593,33.568c-6.64,8.207-14.254,15.404-22.642,21.797c-11.076,8.439-23.119,15.227-35.841,20.836
		c-12.325,5.436-25.064,9.664-38.102,13.018c-8.305,2.137-16.684,3.924-25.137,5.35c-4.856,0.818-9.734,1.512-14.614,2.182
		c-3.522,0.484-7.063,0.838-10.596,1.246c-0.137,0.016-0.278,0.004-0.537,0.004c0.183-0.373,0.327-0.68,0.484-0.98
		c5.217-9.971,10.41-19.957,15.659-29.914c6.309-11.969,12.666-23.912,18.999-35.867c5.132-9.689,10.278-19.369,15.38-29.074
		c5.931-11.277,11.802-22.587,17.737-33.863c3.31-6.288,7.11-12.261,11.758-17.663c2.75-3.197,5.749-6.127,9.285-8.46
		c2.106-1.39,4.336-2.517,6.829-3.049c1.208-0.257,2.424-0.369,3.651-0.199c3.178,0.44,5.286,2.294,6.613,5.114
		c1.114,2.367,1.46,4.9,1.505,7.49c0.079,4.54-0.796,8.931-2.068,13.256c-1.925,6.55-4.765,12.711-8.006,18.699
		c-7.475,13.807-15.63,27.207-24.034,40.459c-5.875,9.262-11.904,18.424-18.119,27.461c-1.058,1.539-2.131,3.064-3.194,4.6
		c-0.16,0.23-0.305,0.471-0.342,0.83c0.252-0.207,0.513-0.406,0.756-0.623c10.248-9.219,19.396-19.447,27.833-30.326
		c8.571-11.055,16.371-22.643,23.67-34.566c3.273-5.348,6.429-10.766,9.645-16.148c2.293-3.837,4.779-7.539,7.736-10.905
		c1.97-2.244,4.104-4.31,6.661-5.891c1.072-0.662,2.201-1.195,3.418-1.542c3.153-0.896,5.926-0.015,7.96,2.556
		c1.39,1.754,2.148,3.798,2.64,5.947c0.694,3.037,0.83,6.116,0.627,9.22c-0.522,8.003-2.863,15.5-6.303,22.693
		c-3.789,7.924-8.531,15.266-13.727,22.326c-5.996,8.145-12.574,15.787-19.863,22.807c-4.757,4.58-9.763,8.861-15.373,12.387
		c-2.5,1.57-5.101,2.943-7.906,3.896c-0.275,0.094-0.558,0.162-0.841,0.232c-0.044,0.012-0.101-0.029-0.204-0.063
		c0.127-0.141,0.229-0.277,0.353-0.391c5.172-4.689,10.005-9.709,14.633-14.93c7.847-8.852,15.136-18.141,21.777-27.932
		c3.113-4.588,6.125-9.242,8.565-14.23c2.451-5.008,4.582-10.15,6.001-15.56c0.399-1.525,0.717-3.071,0.665-4.66
		c-0.018-0.547-0.079-1.112-0.239-1.633c-0.287-0.938-0.918-1.318-1.882-1.121c-0.531,0.109-1.061,0.331-1.533,0.601
		c-1.719,0.98-3.111,2.358-4.439,3.796c-3.416,3.7-6.31,7.797-9,12.038c-7.271,11.465-15.071,22.549-23.618,33.102
		c-4.574,5.645-9.356,11.107-14.418,16.326c-5.575,5.746-11.45,11.152-17.878,15.938c-4.952,3.686-10.155,6.957-15.881,9.318
		c-1.774,0.73-3.623,1.285-5.438,1.918C66.085,294.498,65.972,294.504,65.662,294.559z"/>
	<path fill-rule="evenodd" clip-rule="evenodd" d="M179.341,49.386c-1.228-1.34-2.328-2.67-3.56-3.864
		c-4.624-4.486-10.146-7.063-16.585-7.633c-6.226-0.551-12.087,0.782-17.574,3.648c-10.878,5.682-17.4,14.675-19.633,26.696
		c-1.446,7.783,0.165,15.07,4.243,21.829c2.869,4.753,6.619,8.726,10.891,12.226c5.702,4.674,12.034,8.311,18.751,11.306
		c8.996,4.013,18.368,6.772,28.094,8.321c4.73,0.754,9.491,1.188,14.289,1.107c0.291-0.005,0.582-0.001,0.904,0.098
		c-0.218,0.077-0.432,0.171-0.655,0.229c-4.356,1.123-8.775,1.883-13.256,2.31c-4.801,0.458-9.606,0.584-14.42,0.303
		c-12.945-0.757-25.306-3.697-36.752-9.965c-7.282-3.988-13.576-9.157-18.52-15.881c-4.862-6.616-7.798-14.02-9.051-22.123
		c-1.736-11.226,0.907-21.405,7.229-30.729c3.427-5.053,7.555-9.482,12.056-13.582c0.173-0.157,0.346-0.313,0.515-0.475
		c0.041-0.039,0.066-0.094,0.144-0.208c-0.97-3.033-2.046-6.076-3.393-9.02c-1.35-2.953-3.021-5.711-5.164-8.365
		c0.455-0.031,0.758-0.066,1.062-0.07c5.105-0.064,10.211-0.069,15.312,0.199c8.956,0.471,17.844,1.455,26.564,3.64
		c5.735,1.437,11.289,3.356,16.452,6.291c0.658,0.375,1.305,0.77,1.945,1.149c0.073-0.015,0.138-0.012,0.184-0.041
		c4.545-2.837,9.524-4.647,14.623-6.163c6.216-1.849,12.555-3.13,18.966-4.075c6.704-0.988,13.443-1.536,20.216-1.681
		c1.749-0.037,3.5,0.003,5.251,0.011c0.109,0,0.218,0.031,0.415,0.062c-0.114,0.223-0.181,0.404-0.288,0.554
		c-3.582,4.959-5.61,10.581-7.052,16.458c-0.131,0.531,0.091,0.805,0.436,1.116c2.514,2.273,4.854,4.714,6.995,7.344
		c4.963,6.098,8.658,12.858,10.563,20.522c2.708,10.896,1.653,21.481-2.881,31.715c-3.593,8.109-8.921,14.878-16.061,20.174
		c-4.844,3.593-10.185,6.114-16.128,7.291c-0.485,0.096-0.975,0.174-1.465,0.253c-0.082,0.014-0.172-0.008-0.455-0.026
		c0.365-0.266,0.606-0.444,0.853-0.618c10.944-7.726,18.694-17.875,23.077-30.547c1.954-5.651,2.86-11.48,2.569-17.466
		c-0.43-8.793-3.456-16.6-9.018-23.424c-1.7-2.086-3.579-3.998-5.623-5.748c-4.448-3.809-9.606-6.006-15.4-6.738
		c-11.378-1.438-22.502,3.462-29.154,12.904C179.685,48.938,179.506,49.165,179.341,49.386z"/>
	<path fill-rule="evenodd" clip-rule="evenodd" d="M63.615,321.934c1.03-0.412,1.951-0.512,2.88-0.518
		c2.23-0.021,4.319,0.588,6.339,1.48c2.334,1.031,4.471,2.393,6.512,3.91c4.138,3.074,7.804,6.662,11.34,10.395
		c1.965,2.072,3.903,4.178,5.954,6.166c1.934,1.877,4.119,3.439,6.621,4.508c1.999,0.854,4.062,1.252,6.231,0.822
		c1.852-0.369,3.436-1.264,4.851-2.484c1.948-1.68,3.417-3.742,4.691-5.951c2.315-4.012,3.938-8.318,5.364-12.707
		c0.828-2.551,1.58-5.127,2.488-7.65c1.891-5.252,4.937-9.695,9.459-13.057c2.093-1.553,4.345-2.83,6.74-3.861
		c9.158-3.941,17.904-8.645,26.175-14.219c10.511-7.082,19.965-15.361,28.192-25.016c10.994-12.898,19.131-27.408,24.429-43.506
		c2.411-7.329,4.153-14.814,5.308-22.441c1.167-7.717,1.7-15.479,1.674-23.278c-0.019-5.719-0.359-11.425-0.954-17.116
		c-1.188-11.369-3.436-22.528-6.521-33.526c-0.063-0.225-0.121-0.45-0.171-0.677c-0.01-0.05,0.024-0.109,0.056-0.232
		c0.176,0.243,0.335,0.444,0.473,0.658c8.148,12.579,13.684,26.218,16.627,40.915c1.655,8.267,2.424,16.616,2.329,25.042
		c-0.155,13.791-2.532,27.203-7.018,40.242c-5.525,16.066-13.83,30.564-24.716,43.59c-13.493,16.143-29.805,28.734-48.489,38.305
		c-3.086,1.58-6.239,3.039-9.407,4.449c-4.548,2.023-7.896,5.309-10.393,9.539c-1.756,2.979-3.059,6.16-4.252,9.391
		c-1.822,4.934-3.897,9.746-6.601,14.27c-2.09,3.496-4.482,6.756-7.532,9.49c-2.107,1.891-4.443,3.408-7.145,4.307
		c-4.062,1.35-8.051,0.984-11.973-0.578c-3.259-1.299-6.128-3.234-8.799-5.482c-3.817-3.211-7.092-6.932-10.074-10.908
		c-3.063-4.082-6.012-8.248-9.026-12.367c-0.982-1.342-1.987-2.668-3.027-3.965C69.812,326.836,67.229,323.951,63.615,321.934z"/>
	<path fill-rule="evenodd" clip-rule="evenodd" d="M123.279,382.281c-1.432-4.408-3.003-8.627-4.458-12.971
		c4.84-1.639,8.699-4.635,12.232-8.391c1.323,3.637,2.519,7.18,3.766,10.705c1.252,3.537,2.481,7.086,3.729,10.656
		c0.419,0,0.767-0.002,1.115,0c7.118,0.004,14.236-0.021,21.354,0.029c3.274,0.021,6.514,0.428,9.669,1.371
		c6.026,1.805,9.502,5.844,10.585,12.002c0.411,2.338,0.587,4.695,0.475,7.059c-0.132,2.793-0.391,5.58-0.593,8.369
		c-0.066,0.012-0.132,0.025-0.198,0.039c-0.083-0.152-0.186-0.295-0.245-0.455c-0.572-1.561-1.128-3.125-1.706-4.684
		c-1.681-4.537-4.908-7.236-9.651-8.201c-2.847-0.58-5.718-0.793-8.608-0.793c-18.027-0.014-36.055-0.016-54.083,0
		c-3.212,0.002-6.415,0.188-9.542,1.021c-2.294,0.613-4.373,1.613-6.012,3.393c-1.143,1.238-1.963,2.684-2.582,4.234
		c-0.627,1.568-1.177,3.168-1.76,4.756c-0.089,0.242-0.178,0.484-0.414,0.723c-0.084-0.588-0.186-1.176-0.25-1.768
		c-0.368-3.396-0.605-6.797-0.404-10.215c0.152-2.576,0.572-5.098,1.584-7.494c1.278-3.025,3.401-5.26,6.322-6.748
		c2.53-1.287,5.244-1.967,8.042-2.25c2.23-0.227,4.479-0.346,6.721-0.373c4.608-0.055,9.217-0.016,13.827-0.016
		C122.504,382.281,122.817,382.281,123.279,382.281z"/>
	<path fill-rule="evenodd" clip-rule="evenodd" fill="#FF0000" d="M176.355,61.954c-0.128-0.15-0.267-0.292-0.382-0.45
		c-2.265-3.139-5.343-5.09-9.043-6.052c-4.913-1.276-9.606-0.599-13.831,2.195c-4.945,3.269-7.539,7.918-7.038,13.939
		c0.411,4.947,2.986,8.708,7.106,11.38c6.058,3.929,14.037,3.583,19.772-0.802c0.644-0.493,1.197-1.104,1.795-1.658
		c0.101-0.094,0.212-0.179,0.426-0.195c-0.078,0.165-0.136,0.343-0.238,0.49c-2.146,3.07-4.881,5.47-8.226,7.158
		c-3.336,1.684-6.872,2.472-10.619,2.473c-3.38,0.001-6.616-0.592-9.68-1.995c-5.47-2.503-9.437-6.478-11.498-12.185
		c-1.077-2.979-1.325-6.078-0.844-9.218c1.061-6.919,4.95-11.806,10.971-15.114c3.336-1.833,6.93-2.634,10.745-2.655
		c3.438-0.019,6.728,0.537,9.863,1.948c4.067,1.831,7.354,4.573,9.712,8.383c0.368,0.594,0.704,1.208,1.042,1.82
		c0.076,0.138,0.096,0.307,0.141,0.462C176.471,61.904,176.414,61.929,176.355,61.954z"/>
	<path fill-rule="evenodd" clip-rule="evenodd" fill="#FF0000" d="M185.292,62.092c0.143-0.354,0.21-0.57,0.312-0.769
		c2.177-4.272,5.427-7.475,9.696-9.635c3.255-1.646,6.707-2.426,10.369-2.423c2.503,0.002,4.957,0.233,7.333,0.998
		c4.625,1.488,8.463,4.103,11.353,8.062c1.731,2.375,2.916,4.982,3.416,7.873c0.436,2.514,0.433,5.042-0.062,7.559
		c-0.808,4.118-2.846,7.551-5.839,10.443c-2.081,2.008-4.492,3.505-7.166,4.602c-3.533,1.449-7.232,1.913-10.982,1.558
		c-6.994-0.663-12.628-3.837-16.735-9.601c-0.082-0.115-0.146-0.243-0.257-0.427c0.431-0.067,0.567,0.256,0.73,0.432
		c1.793,1.932,4.001,3.199,6.471,4.021c7.098,2.363,14.85-0.048,19.129-5.798c4.419-5.938,3.719-14.207-1.643-19.293
		c-4.261-4.042-9.338-5.514-15.067-4.533c-4.268,0.73-7.821,2.797-10.401,6.369c-0.102,0.141-0.209,0.279-0.323,0.411
		C185.591,61.979,185.525,61.988,185.292,62.092z"/>
	<path fill-rule="evenodd" clip-rule="evenodd" d="M140.266,337.85c0.359,0.152,0.65,0.268,0.935,0.395
		c2.349,1.059,4.77,1.877,7.328,2.26c4.903,0.732,9.243-0.5,13.036-3.688c2.529-2.125,4.506-4.715,6.282-7.471
		c2.503-3.881,4.518-8.025,6.595-12.137c1.972-3.904,3.988-7.783,5.989-11.67c0.169-0.328,0.372-0.637,0.728-0.914
		c0.021,0.514,0.064,1.029,0.058,1.543c-0.044,3.74-0.415,7.451-1.027,11.139c-1.118,6.721-2.842,13.277-5.396,19.604
		c-1.51,3.742-3.297,7.34-5.661,10.629c-1.266,1.758-2.68,3.383-4.377,4.744c-1.639,1.311-3.434,2.307-5.521,2.701
		c-2.434,0.463-4.769,0.088-7.005-0.9c-4.203-1.855-7.316-4.928-9.644-8.836c-1.236-2.078-2.087-4.299-2.318-6.725
		C140.25,338.328,140.266,338.131,140.266,337.85z"/>
	<path fill-rule="evenodd" clip-rule="evenodd" d="M189.453,397.01c-0.134-5.219-0.717-10.23-3.889-14.646
		c0.271-0.035,0.453-0.08,0.636-0.08c5.744,0.002,11.489-0.031,17.231,0.027c3.48,0.037,6.925,0.455,10.243,1.58
		c3.457,1.172,6.296,3.145,8.102,6.41c1.146,2.07,1.731,4.316,2.039,6.645c0.506,3.814,0.291,7.623-0.092,11.43
		c-0.092,0.916-0.212,1.828-0.459,2.766c-0.088-0.193-0.19-0.383-0.262-0.582c-0.495-1.371-0.981-2.742-1.473-4.113
		c-0.039-0.109-0.093-0.215-0.133-0.324c-1.745-4.848-5.249-7.541-10.258-8.436c-2.709-0.482-5.438-0.664-8.181-0.672
		c-4.141-0.014-8.281-0.004-12.422-0.004C190.194,397.01,189.852,397.01,189.453,397.01z"/>
	<path fill-rule="evenodd" clip-rule="evenodd" d="M179.383,377.477c-0.312-0.102-0.474-0.143-0.628-0.207
		c-3.107-1.271-6.364-1.889-9.691-2.156c-1.685-0.135-3.378-0.172-5.067-0.236c-0.381-0.014-0.645-0.055-0.775-0.502
		c-1.18-4.027-2.383-8.047-3.577-12.068c-0.006-0.021,0.017-0.051,0.061-0.17c5.083-1.16,9.346-3.672,12.249-8.404
		C174.444,361.689,176.886,369.498,179.383,377.477z"/>
	<path fill-rule="evenodd" clip-rule="evenodd" d="M181.638,102.53c-0.957-1.04-1.602-2.108-2.134-3.245
		c-1.869-3.986-2.362-8.199-1.992-12.537c0.252-2.959,0.979-5.797,2.415-8.422c0.458-0.838,0.961-1.652,1.733-2.41
		c0.358,0.472,0.712,0.887,1.011,1.338c1.408,2.12,2.243,4.47,2.709,6.954c0.825,4.405,0.626,8.757-0.793,13.026
		c-0.526,1.583-1.251,3.074-2.245,4.423C182.139,101.933,181.913,102.191,181.638,102.53z"/>
	<path fill-rule="evenodd" clip-rule="evenodd" d="M162.792,65.388c2.841-0.132,5.251,2.317,5.237,5.266
		c-0.013,2.62-2.065,5.259-5.3,5.235c-2.986-0.022-5.233-2.292-5.231-5.298C157.501,67.337,160.179,65.221,162.792,65.388z"/>
	<path fill-rule="evenodd" clip-rule="evenodd" d="M198.629,65.388c2.944-0.149,5.282,2.368,5.289,5.212
		c0.008,2.671-2.059,5.29-5.247,5.288c-3.002-0.002-5.265-2.249-5.283-5.244C193.368,67.315,196.096,65.236,198.629,65.388z"/>
</g>
</svg>
